<svg width="15" height="16" viewBox="0 0 15 16" fill="none" xmlns="http://www.w3.org/2000/svg">
<g clip-path="url(#clip0_37_31)">
<path d="M14.1906 8.70627C14.5813 8.31565 14.5813 7.68127 14.1906 7.29065L9.19063 2.29065C8.8 1.90002 8.16563 1.90002 7.775 2.29065C7.38438 2.68127 7.38438 3.31565 7.775 3.70627L11.0719 7.00002H1.48438C0.93125 7.00002 0.484375 7.4469 0.484375 8.00002C0.484375 8.55315 0.93125 9.00002 1.48438 9.00002H11.0688L7.77812 12.2938C7.3875 12.6844 7.3875 13.3188 7.77812 13.7094C8.16875 14.1 8.80313 14.1 9.19375 13.7094L14.1938 8.7094L14.1906 8.70627Z" fill="white"/>
</g>
<defs>
<clipPath id="clip0_37_31">
<path d="M0.484375 0H14.4844V16H0.484375V0Z" fill="white"/>
</clipPath>
</defs>
</svg>
