<svg width="31" height="30" viewBox="0 0 31 30" fill="none" xmlns="http://www.w3.org/2000/svg">
<g clip-path="url(#clip0_37_63)">
<path d="M10.3184 1.44151C9.86719 0.351663 8.67773 -0.228415 7.54102 0.0821317L2.38477 1.48838C1.36523 1.76963 0.65625 2.69541 0.65625 3.7501C0.65625 18.2462 12.4102 30.0001 26.9062 30.0001C27.9609 30.0001 28.8867 29.2911 29.168 28.2716L30.5742 23.1153C30.8848 21.9786 30.3047 20.7892 29.2148 20.338L23.5898 17.9942C22.6348 17.5958 21.5273 17.8712 20.877 18.6739L18.5098 21.5626C14.3848 19.6114 11.0449 16.2716 9.09375 12.1466L11.9824 9.78526C12.7852 9.12901 13.0605 8.02744 12.6621 7.07237L10.3184 1.44737V1.44151Z" fill="#FF6666"/>
</g>
<defs>
<clipPath id="clip0_37_63">
<path d="M0.65625 0H30.6562V30H0.65625V0Z" fill="white"/>
</clipPath>
</defs>
</svg>
