<svg width="19" height="16" viewBox="0 0 19 16" fill="none" xmlns="http://www.w3.org/2000/svg">
<g clip-path="url(#clip0_25_696)">
<path d="M0.109375 0.75C0.109375 0.334375 0.44375 0 0.859375 0H2.28125C2.96875 0 3.57812 0.4 3.8625 1H16.7062C17.5281 1 18.1281 1.78125 17.9125 2.575L16.6313 7.33437C16.3656 8.31563 15.475 9 14.4594 9H5.44375L5.6125 9.89062C5.68125 10.2437 5.99062 10.5 6.35 10.5H15.3594C15.775 10.5 16.1094 10.8344 16.1094 11.25C16.1094 11.6656 15.775 12 15.3594 12H6.35C5.26875 12 4.34062 11.2312 4.14062 10.1719L2.52813 1.70312C2.50625 1.58438 2.40313 1.5 2.28125 1.5H0.859375C0.44375 1.5 0.109375 1.16562 0.109375 0.75ZM4.10938 14.5C4.10938 14.303 4.14817 14.108 4.22356 13.926C4.29894 13.744 4.40943 13.5786 4.54871 13.4393C4.688 13.3001 4.85336 13.1896 5.03535 13.1142C5.21734 13.0388 5.41239 13 5.60938 13C5.80636 13 6.00141 13.0388 6.1834 13.1142C6.36539 13.1896 6.53075 13.3001 6.67004 13.4393C6.80932 13.5786 6.91981 13.744 6.99519 13.926C7.07058 14.108 7.10938 14.303 7.10938 14.5C7.10938 14.697 7.07058 14.892 6.99519 15.074C6.91981 15.256 6.80932 15.4214 6.67004 15.5607C6.53075 15.6999 6.36539 15.8104 6.1834 15.8858C6.00141 15.9612 5.80636 16 5.60938 16C5.41239 16 5.21734 15.9612 5.03535 15.8858C4.85336 15.8104 4.688 15.6999 4.54871 15.5607C4.40943 15.4214 4.29894 15.256 4.22356 15.074C4.14817 14.892 4.10938 14.697 4.10938 14.5ZM14.6094 13C15.0072 13 15.3887 13.158 15.67 13.4393C15.9513 13.7206 16.1094 14.1022 16.1094 14.5C16.1094 14.8978 15.9513 15.2794 15.67 15.5607C15.3887 15.842 15.0072 16 14.6094 16C14.2116 16 13.83 15.842 13.5487 15.5607C13.2674 15.2794 13.1094 14.8978 13.1094 14.5C13.1094 14.1022 13.2674 13.7206 13.5487 13.4393C13.83 13.158 14.2116 13 14.6094 13ZM7.98438 5C7.98438 5.34375 8.26562 5.625 8.60938 5.625H9.98438V7C9.98438 7.34375 10.2656 7.625 10.6094 7.625C10.9531 7.625 11.2344 7.34375 11.2344 7V5.625H12.6094C12.9531 5.625 13.2344 5.34375 13.2344 5C13.2344 4.65625 12.9531 4.375 12.6094 4.375H11.2344V3C11.2344 2.65625 10.9531 2.375 10.6094 2.375C10.2656 2.375 9.98438 2.65625 9.98438 3V4.375H8.60938C8.26562 4.375 7.98438 4.65625 7.98438 5Z" fill="white"/>
</g>
<defs>
<clipPath id="clip0_25_696">
<path d="M0.109375 0H18.1094V16H0.109375V0Z" fill="white"/>
</clipPath>
</defs>
</svg>
