<svg width="41" height="36" viewBox="0 0 41 36" fill="none" xmlns="http://www.w3.org/2000/svg">
<g clip-path="url(#clip0_45_19)">
<path d="M0 2.14062C0 1.23145 0.749411 0.5 1.68092 0.5H4.86767C6.40851 0.5 7.77426 1.375 8.41161 2.6875H37.1974C39.0394 2.6875 40.3841 4.39648 39.9009 6.13281L37.0293 16.5439C36.434 18.6904 34.4379 20.1875 32.1616 20.1875H11.9555L12.3338 22.1357C12.4878 22.9082 13.1812 23.4688 13.9867 23.4688H34.1787C35.1102 23.4688 35.8596 24.2002 35.8596 25.1094C35.8596 26.0186 35.1102 26.75 34.1787 26.75H13.9867C11.5633 26.75 9.4832 25.0684 9.03495 22.751L5.42097 4.22559C5.37194 3.96582 5.14082 3.78125 4.86767 3.78125H1.68092C0.749411 3.78125 0 3.0498 0 2.14062ZM8.96491 32.2188C8.96491 31.7879 9.05187 31.3612 9.22082 30.9631C9.38976 30.565 9.6374 30.2032 9.94957 29.8986C10.2617 29.5939 10.6324 29.3522 11.0402 29.1873C11.4481 29.0224 11.8853 28.9375 12.3268 28.9375C12.7682 28.9375 13.2054 29.0224 13.6133 29.1873C14.0212 29.3522 14.3918 29.5939 14.7039 29.8986C15.0161 30.2032 15.2637 30.565 15.4327 30.9631C15.6016 31.3612 15.6886 31.7879 15.6886 32.2188C15.6886 32.6496 15.6016 33.0763 15.4327 33.4744C15.2637 33.8725 15.0161 34.2343 14.7039 34.5389C14.3918 34.8436 14.0212 35.0853 13.6133 35.2502C13.2054 35.4151 12.7682 35.5 12.3268 35.5C11.8853 35.5 11.4481 35.4151 11.0402 35.2502C10.6324 35.0853 10.2617 34.8436 9.94957 34.5389C9.6374 34.2343 9.38976 33.8725 9.22082 33.4744C9.05187 33.0763 8.96491 32.6496 8.96491 32.2188ZM32.4978 28.9375C33.3894 28.9375 34.2445 29.2832 34.875 29.8986C35.5055 30.5139 35.8596 31.3485 35.8596 32.2188C35.8596 33.089 35.5055 33.9236 34.875 34.5389C34.2445 35.1543 33.3894 35.5 32.4978 35.5C31.6062 35.5 30.7511 35.1543 30.1206 34.5389C29.4902 33.9236 29.136 33.089 29.136 32.2188C29.136 31.3485 29.4902 30.5139 30.1206 29.8986C30.7511 29.2832 31.6062 28.9375 32.4978 28.9375Z" fill="#FF6666"/>
</g>
<defs>
<clipPath id="clip0_45_19">
<path d="M0 0.5H40.5V35.5H0V0.5Z" fill="white"/>
</clipPath>
</defs>
</svg>
