<svg width="23" height="30" viewBox="0 0 23 30" fill="none" xmlns="http://www.w3.org/2000/svg">
<g clip-path="url(#clip0_37_78)">
<path d="M12.7012 29.25C15.707 25.4883 22.5625 16.3711 22.5625 11.25C22.5625 5.03906 17.5234 0 11.3125 0C5.10156 0 0.0625 5.03906 0.0625 11.25C0.0625 16.3711 6.91797 25.4883 9.92383 29.25C10.6445 30.1465 11.9805 30.1465 12.7012 29.25ZM11.3125 7.5C12.3071 7.5 13.2609 7.89509 13.9642 8.59835C14.6674 9.30161 15.0625 10.2554 15.0625 11.25C15.0625 12.2446 14.6674 13.1984 13.9642 13.9017C13.2609 14.6049 12.3071 15 11.3125 15C10.3179 15 9.36411 14.6049 8.66085 13.9017C7.95759 13.1984 7.5625 12.2446 7.5625 11.25C7.5625 10.2554 7.95759 9.30161 8.66085 8.59835C9.36411 7.89509 10.3179 7.5 11.3125 7.5Z" fill="#FF6666"/>
</g>
<defs>
<clipPath id="clip0_37_78">
<path d="M0.0625 0H22.5625V30H0.0625V0Z" fill="white"/>
</clipPath>
</defs>
</svg>
