<svg width="25" height="24" viewBox="0 0 25 24" fill="none" xmlns="http://www.w3.org/2000/svg">
<g clip-path="url(#clip0_37_49)">
<path d="M2.73125 14.0813L11.2016 21.9891C11.5531 22.3172 12.0172 22.5 12.5 22.5C12.9828 22.5 13.4469 22.3172 13.7984 21.9891L22.2687 14.0813C23.6938 12.7547 24.5 10.8938 24.5 8.94844V8.67657C24.5 5.40001 22.1328 2.60626 18.9031 2.06719C16.7656 1.71094 14.5906 2.40938 13.0625 3.93751L12.5 4.50001L11.9375 3.93751C10.4094 2.40938 8.23438 1.71094 6.09688 2.06719C2.86719 2.60626 0.5 5.40001 0.5 8.67657V8.94844C0.5 10.8938 1.30625 12.7547 2.73125 14.0813Z" fill="#FF6666"/>
</g>
<defs>
<clipPath id="clip0_37_49">
<path d="M0.5 0H24.5V24H0.5V0Z" fill="white"/>
</clipPath>
</defs>
</svg>
