<svg width="31" height="30" viewBox="0 0 31 30" fill="none" xmlns="http://www.w3.org/2000/svg">
<g clip-path="url(#clip0_37_71)">
<path d="M3.79688 3.75C2.24414 3.75 0.984375 5.00977 0.984375 6.5625C0.984375 7.44727 1.40039 8.2793 2.10938 8.8125L14.8594 18.375C15.5273 18.873 16.4414 18.873 17.1094 18.375L29.8594 8.8125C30.5684 8.2793 30.9844 7.44727 30.9844 6.5625C30.9844 5.00977 29.7246 3.75 28.1719 3.75H3.79688ZM0.984375 10.3125V22.5C0.984375 24.5684 2.66602 26.25 4.73438 26.25H27.2344C29.3027 26.25 30.9844 24.5684 30.9844 22.5V10.3125L18.2344 19.875C16.8984 20.877 15.0703 20.877 13.7344 19.875L0.984375 10.3125Z" fill="#FF6666"/>
</g>
<defs>
<clipPath id="clip0_37_71">
<path d="M0.984375 0H30.9844V30H0.984375V0Z" fill="white"/>
</clipPath>
</defs>
</svg>
