<svg width="25" height="24" viewBox="0 0 25 24" fill="none" xmlns="http://www.w3.org/2000/svg">
<g clip-path="url(#clip0_37_44)">
<path d="M13.25 4.49999C9.56563 4.49999 6.44844 6.91405 5.38906 10.2422C6.96406 9.4453 8.74063 8.99999 10.625 8.99999H14.75C15.1625 8.99999 15.5 9.33749 15.5 9.74999C15.5 10.1625 15.1625 10.5 14.75 10.5H14H10.625C9.84688 10.5 9.09219 10.5891 8.36563 10.7531C7.15156 11.0297 6.02187 11.5219 5.01875 12.1922C2.29531 14.0062 0.5 17.1047 0.5 20.625V21.375C0.5 21.9984 1.00156 22.5 1.625 22.5C2.24844 22.5 2.75 21.9984 2.75 21.375V20.625C2.75 18.3422 3.72031 16.2891 5.27188 14.85C6.2 18.3891 9.42031 21 13.25 21H13.2969C19.4891 20.9672 24.5 14.8641 24.5 7.34061C24.5 5.34374 24.1484 3.4453 23.5109 1.73436C23.3891 1.41093 22.9156 1.42499 22.7516 1.72968C21.8703 3.37968 20.1266 4.49999 18.125 4.49999H13.25Z" fill="#FF6666"/>
</g>
<defs>
<clipPath id="clip0_37_44">
<path d="M0.5 0H24.5V24H0.5V0Z" fill="white"/>
</clipPath>
</defs>
</svg>
